
<svg width="130" height="48" viewBox="0 0 130 48" fill="none" xmlns="http://www.w3.org/2000/svg">
<path d="M106.509 7.06216C105.787 8.67106 105.168 10.3212 104.9 11.7857C105.312 11.7857 105.725 11.8682 106.096 12.0126C106.735 12.2808 107.334 12.652 107.87 13.0852C108.097 12.1983 108.427 11.2288 108.881 10.2181C109.149 9.59927 109.52 8.98046 109.933 8.36166C108.963 7.59846 107.705 7.22718 106.509 7.06216Z" fill="#7DCEF1"/>
<path d="M111.005 26.9876C110.757 27.6064 110.407 28.2046 109.994 28.7615C109.747 29.0709 109.458 29.3597 109.148 29.5866C109.912 30.4736 111.005 31.2986 112.139 31.9999C113.006 31.278 113.851 30.3498 114.346 29.2566C113.81 29.0503 113.315 28.8028 112.861 28.514C112.139 28.0396 111.521 27.5239 111.005 26.9876Z" fill="#7DCEF1"/>
<path d="M102.981 12.1363C102.589 12.2601 102.218 12.4251 101.867 12.5901C101.826 13.8896 101.909 15.2097 102.177 16.2823C102.507 16.0967 102.858 15.9523 103.208 15.8698C103.806 15.746 104.425 15.7048 105.023 15.746C104.879 15.0447 104.776 14.2403 104.776 13.3946C104.776 12.8789 104.817 12.3426 104.92 11.7857C104.281 11.7857 103.621 11.9301 102.981 12.1363Z" fill="#7DCEF1"/>
<path d="M114.656 25.5025C114.78 26.2657 114.821 27.0701 114.718 27.8952C114.656 28.3696 114.532 28.8234 114.326 29.2772C115.193 29.6072 116.183 29.8547 117.235 30.0198C117.915 30.1229 118.637 30.2054 119.359 30.2673C119.792 28.9059 120.06 27.3795 119.792 25.9356C119.029 26.0388 118.307 26.0594 117.626 26.0181C116.554 25.9356 115.543 25.75 114.656 25.5025Z" fill="#7DCEF1"/>
<path d="M102.177 16.2823C101.372 16.7361 100.651 17.4787 100.073 18.2212C100.444 19.1495 100.939 20.0777 101.517 20.7583C101.723 20.4489 101.95 20.1808 102.218 19.9539C102.672 19.562 103.167 19.2526 103.662 19.0051C103.27 18.5513 102.92 18.0356 102.61 17.4374C102.424 17.1074 102.301 16.7155 102.177 16.2823Z" fill="#7DCEF1"/>
<path d="M123.299 19.4382C122.556 19.9745 121.793 20.4283 121.03 20.779C119.792 21.3359 118.616 21.7484 117.523 22.0372C118.183 22.6973 118.761 23.4398 119.256 24.3062C119.545 24.8218 119.73 25.3788 119.833 25.9357C121.855 25.6675 124.144 24.925 126.413 23.9555C125.733 22.2847 124.722 20.614 123.299 19.4382Z" fill="#7DCEF1"/>
<path d="M101.517 20.779C101.022 21.5215 100.671 22.4497 100.424 23.3161C101.063 23.8936 101.785 24.4505 102.569 24.7393C102.631 24.368 102.734 24.038 102.878 23.708C103.126 23.1511 103.414 22.656 103.765 22.2022C103.27 22.0372 102.775 21.7897 102.301 21.4803C102.012 21.2946 101.744 21.0471 101.517 20.779Z" fill="#7DCEF1"/>
<path d="M122.144 12.1363C121.773 12.9407 121.319 13.7245 120.803 14.4258C119.958 15.5603 119.05 16.5504 118.142 17.3961C119.236 17.5611 120.349 17.8705 121.443 18.3243C122.123 18.5925 122.742 18.9844 123.299 19.4382C125.3 17.9943 127.198 15.9729 128.889 13.7864C126.764 12.8582 124.454 12.1981 122.144 12.1363Z" fill="#7DCEF1"/>
<path d="M107.643 26.6164C107.189 26.9877 106.673 27.3177 106.137 27.5653C105.828 27.7096 105.498 27.7922 105.147 27.8334C105.394 28.8029 105.89 29.793 106.467 30.6799C107.375 30.4943 108.365 30.1642 109.169 29.5867C108.86 29.236 108.612 28.8854 108.427 28.4935C108.055 27.8747 107.808 27.2352 107.643 26.6164Z" fill="#7DCEF1"/>
<path d="M105.126 24.8631C104.59 24.9662 104.054 25.0075 103.497 24.9662C103.187 24.9456 102.857 24.8631 102.548 24.7393C102.383 25.6263 102.424 26.637 102.548 27.5652C102.857 27.6477 103.187 27.7302 103.497 27.7715C104.033 27.854 104.59 27.8953 105.106 27.8128C105.003 27.4415 104.941 27.0496 104.941 26.6783C104.961 26.0595 105.023 25.4407 105.126 24.8631Z" fill="#7DCEF1"/>
<path d="M114.388 3.55554C112.655 5.10256 111.067 6.77333 109.933 8.40285C110.325 8.73288 110.655 9.10417 110.923 9.57859C111.356 10.3624 111.686 11.1875 111.892 12.0538C112.614 11.1875 113.48 10.3212 114.491 9.45483C115.11 8.91853 115.811 8.42348 116.574 7.99032C116.265 6.25766 115.378 4.7519 114.388 3.55554Z" fill="#7DCEF1"/>
<path d="M120.679 6.19574C119.215 6.69078 117.812 7.28896 116.574 7.99027C116.698 8.67096 116.739 9.37227 116.657 10.0942C116.533 11.2906 116.265 12.4457 115.914 13.4976C117.028 13.0232 118.245 12.6313 119.586 12.3632C120.411 12.1775 121.277 12.1156 122.144 12.1363C123.113 9.99108 123.546 7.59836 123.67 5.32941C122.659 5.59756 121.669 5.86571 120.679 6.19574Z" fill="#7DCEF1"/>
<path d="M111.541 24.0999C111.562 25.0488 111.376 26.0388 110.984 26.9877C111.5 27.524 112.139 28.0396 112.861 28.5347C113.295 28.8235 113.79 29.071 114.347 29.2773C114.553 28.8441 114.677 28.3697 114.738 27.8953C114.821 27.0908 114.8 26.2864 114.677 25.5025C113.418 25.1725 112.366 24.6775 111.541 24.0999Z" fill="#00AAE7"/>
<path d="M104.9 11.8063C104.797 12.3632 104.735 12.9202 104.755 13.4152C104.776 14.2609 104.859 15.0447 105.003 15.7667C105.911 15.8492 106.756 16.1173 107.458 16.5711C107.396 15.5604 107.519 14.3847 107.849 13.1264C107.334 12.6726 106.736 12.322 106.076 12.0538C105.725 11.8888 105.333 11.8063 104.9 11.8063Z" fill="#00AAE7"/>
<path d="M103.208 15.8698C102.858 15.9524 102.507 16.0967 102.177 16.2824C102.28 16.7155 102.425 17.1075 102.61 17.4581C102.92 18.0563 103.27 18.572 103.662 19.0258C104.281 18.7164 104.92 18.5307 105.56 18.4482C105.725 18.4276 105.869 18.4069 106.034 18.4069C105.58 17.685 105.209 16.7981 105.003 15.7667C104.425 15.7048 103.807 15.7461 103.208 15.8698Z" fill="#00AAE7"/>
<path d="M117.503 22.0372C116.286 22.3466 115.172 22.491 114.161 22.491C113.914 22.491 113.687 22.491 113.46 22.4704C114.038 23.3367 114.45 24.368 114.636 25.5231C115.523 25.7707 116.533 25.9357 117.627 26.0182C118.307 26.0594 119.029 26.0388 119.792 25.9357C119.689 25.3581 119.504 24.8012 119.215 24.3062C118.761 23.4398 118.163 22.6766 117.503 22.0372Z" fill="#00AAE7"/>
<path d="M103.662 19.0257C103.147 19.2732 102.672 19.6032 102.218 19.9745C101.95 20.2014 101.723 20.4696 101.517 20.779C101.744 21.0471 102.012 21.2947 102.28 21.4803C102.755 21.7897 103.25 22.0372 103.745 22.2022C104.26 21.5009 104.879 20.944 105.56 20.5315C104.879 20.2014 104.24 19.6858 103.662 19.0257Z" fill="#00AAE7"/>
<path d="M118.122 17.3961C116.863 18.5513 115.605 19.4176 114.409 19.9951C115.481 20.4283 116.554 21.109 117.503 22.0372C118.596 21.7484 119.772 21.3359 121.009 20.779C121.772 20.4283 122.536 19.9745 123.278 19.4382C122.721 18.9844 122.103 18.5925 121.422 18.3244C120.329 17.8706 119.215 17.5612 118.122 17.3961Z" fill="#00AAE7"/>
<path d="M109.334 24.5743C108.922 25.3375 108.344 26.0388 107.643 26.6164C107.808 27.2352 108.056 27.8746 108.386 28.514C108.592 28.8853 108.839 29.2566 109.128 29.6073C109.458 29.3804 109.747 29.0916 109.974 28.7822C110.386 28.2253 110.716 27.6271 110.985 27.0083C110.242 26.2245 109.685 25.3994 109.334 24.5743Z" fill="#00AAE7"/>
<path d="M107.375 23.9349C106.715 24.3887 105.952 24.6981 105.127 24.8631C105.003 25.4406 104.962 26.0594 104.962 26.6989C104.962 27.0702 105.024 27.4621 105.127 27.8334C105.477 27.7921 105.807 27.7096 106.117 27.5652C106.653 27.3177 107.169 27.0083 107.623 26.6164C107.396 25.6882 107.293 24.7806 107.375 23.9349Z" fill="#00AAE7"/>
<path d="M103.765 22.2022C103.415 22.656 103.126 23.1717 102.878 23.708C102.734 24.0174 102.631 24.3681 102.569 24.7393C102.878 24.8631 103.209 24.9456 103.518 24.9662C104.075 25.0075 104.611 24.9662 105.147 24.8631C105.333 23.9968 105.642 23.1717 106.076 22.491C105.931 22.5116 105.766 22.5116 105.622 22.5116C104.982 22.5116 104.364 22.4085 103.765 22.2022Z" fill="#00AAE7"/>
<path d="M109.933 8.40286C109.52 9.02167 109.17 9.64047 108.881 10.2593C108.427 11.27 108.097 12.2188 107.87 13.1264C108.654 13.7865 109.273 14.6322 109.665 15.5398C110.139 14.4465 110.902 13.2708 111.892 12.0744C111.686 11.2081 111.356 10.3624 110.923 9.59922C110.655 9.10418 110.325 8.73289 109.933 8.40286Z" fill="#00AAE7"/>
<path d="M116.575 7.99033C115.811 8.42349 115.11 8.91854 114.491 9.45483C113.481 10.3212 112.614 11.1875 111.892 12.0538C112.202 13.3121 112.243 14.5909 112.078 15.7667C113.089 14.921 114.388 14.1371 115.894 13.4977C116.245 12.4251 116.513 11.27 116.637 10.0943C116.74 9.37233 116.698 8.67101 116.575 7.99033Z" fill="#00AAE7"/>
<path d="M119.586 12.3632C118.245 12.652 117.008 13.0439 115.914 13.5184C115.419 15.0241 114.718 16.3649 113.914 17.4375C114.161 17.3962 114.409 17.355 114.656 17.3137C115.729 17.1899 116.904 17.1899 118.121 17.3962C119.029 16.5505 119.937 15.5604 120.782 14.4259C121.319 13.7246 121.752 12.9614 122.123 12.1364C121.277 12.1157 120.432 12.1982 119.586 12.3632Z" fill="#00AAE7"/>
<path d="M105.024 15.7666C105.251 16.7979 105.601 17.6849 106.055 18.4068C106.756 18.3862 107.416 18.51 108.015 18.7987C107.705 18.1799 107.54 17.4167 107.478 16.571C106.756 16.1173 105.911 15.8285 105.024 15.7666Z" fill="#006FBA"/>
<path d="M111.047 21.8516C111.377 22.5116 111.542 23.2748 111.563 24.0999C112.388 24.6774 113.44 25.1725 114.677 25.5025C114.492 24.368 114.079 23.3161 113.501 22.4497C112.532 22.4085 111.707 22.1816 111.047 21.8516Z" fill="#006FBA"/>
<path d="M105.56 18.4275C104.921 18.51 104.281 18.6957 103.662 19.0051C104.24 19.6651 104.879 20.1808 105.581 20.5108C106.179 20.1395 106.818 19.9126 107.458 19.8301C106.921 19.5001 106.447 19.0051 106.055 18.3863C105.89 18.4069 105.725 18.4069 105.56 18.4275Z" fill="#006FBA"/>
<path d="M114.43 19.9745C113.481 20.4283 112.573 20.6964 111.728 20.7583C112.388 21.1502 112.986 21.7278 113.481 22.4497C113.708 22.4703 113.935 22.4703 114.182 22.4703C115.172 22.4703 116.307 22.326 117.524 22.0165C116.575 21.0883 115.502 20.4077 114.43 19.9745Z" fill="#006FBA"/>
<path d="M109.974 22.4497C109.913 23.1717 109.686 23.8936 109.335 24.5743C109.686 25.3994 110.263 26.2245 111.006 26.9876C111.398 26.0388 111.583 25.0487 111.563 24.0999C110.882 23.6255 110.346 23.0685 109.974 22.4497Z" fill="#006FBA"/>
<path d="M108.861 22.4497C108.489 23.0273 107.974 23.543 107.375 23.9349C107.293 24.7806 107.396 25.6882 107.644 26.5957C108.345 26.0182 108.922 25.3169 109.335 24.5537C109.026 23.873 108.861 23.1511 108.861 22.4497Z" fill="#006FBA"/>
<path d="M107.953 21.9134C107.375 22.2434 106.736 22.4291 106.055 22.4909C105.622 23.1716 105.313 23.9967 105.127 24.863C105.931 24.698 106.695 24.3886 107.375 23.9348C107.437 23.2129 107.623 22.5116 107.953 21.9134Z" fill="#006FBA"/>
<path d="M105.581 20.5315C104.9 20.944 104.281 21.5216 103.766 22.2022C104.384 22.4085 105.003 22.5116 105.601 22.5116C105.746 22.5116 105.911 22.5116 106.055 22.491C106.426 21.8722 106.901 21.3565 107.437 20.9646C106.818 20.9646 106.179 20.8202 105.581 20.5315Z" fill="#006FBA"/>
<path d="M107.87 13.1058C107.54 14.364 107.417 15.5397 107.479 16.5505C108.097 16.9424 108.634 17.458 108.984 18.0562C109.046 17.2724 109.273 16.4061 109.665 15.4985C109.273 14.6115 108.654 13.7865 107.87 13.1058Z" fill="#006FBA"/>
<path d="M111.892 12.0538C110.902 13.2502 110.139 14.4259 109.665 15.5191C110.015 16.3029 110.18 17.1074 110.18 17.9325C110.634 17.1899 111.274 16.468 112.078 15.7873C112.264 14.5909 112.202 13.312 111.892 12.0538Z" fill="#006FBA"/>
<path d="M115.915 13.5183C114.389 14.1577 113.11 14.9416 112.099 15.7873C111.955 16.7774 111.666 17.6849 111.253 18.4481C112.017 17.9737 112.924 17.6437 113.935 17.4374C114.719 16.3648 115.399 15.0241 115.915 13.5183Z" fill="#006FBA"/>
<path d="M114.657 17.3137C114.409 17.3549 114.162 17.3756 113.914 17.4374C113.275 18.3038 112.553 19.0051 111.81 19.5001C112.656 19.4589 113.543 19.6239 114.43 19.9745C115.626 19.397 116.884 18.5307 118.143 17.3756C116.905 17.1899 115.729 17.1899 114.657 17.3137Z" fill="#006FBA"/>
<path d="M32.5731 20.059C32.1095 19.5958 31.3235 19.173 30.618 19.173C29.832 19.173 28.9855 19.6361 28.5219 20.1999L28.4211 20.3006L25.5389 23.4621C25.0955 23.9454 24.8133 24.2474 24.0474 24.2877H22.7978C21.7295 24.2877 20.8628 23.4218 20.8628 22.3546V19.3542V13.3333L18.283 14.6221V22.9788C18.283 25.1133 20.0163 26.845 22.1528 26.845H24.1683C25.3978 26.845 26.4862 26.2812 27.1916 25.3751L27.5343 24.9925L28.9855 26.4423C30.3762 27.8317 32.6134 27.8317 34.0041 26.4423C35.3949 25.0529 35.3949 22.8177 34.0041 21.4283L32.5731 20.059ZM32.17 24.63C31.7871 25.0126 31.1824 25.0126 30.7994 24.63L29.2878 23.1198C29.2878 23.1198 30.0134 22.3546 29.9932 22.3546C30.5979 21.7505 31.3235 22.4351 31.3235 22.4351L32.17 23.2808C32.553 23.6433 32.553 24.2675 32.17 24.63Z" fill="#004B8D"/>
<path d="M38.9019 22.3546V19.3542V13.3333L36.322 14.6221V22.9788C36.322 25.1133 38.0554 26.845 40.1918 26.845H55.006V24.2675H40.8368C39.7686 24.2675 38.9019 23.4218 38.9019 22.3546Z" fill="#004B8D"/>
<path d="M91.0841 24.2675C90.0159 24.2675 89.1492 23.4017 89.1492 22.3344V19.3341V13.3333L86.5693 14.6221V22.9788C86.5693 25.1133 88.3027 26.845 90.4392 26.845H96.8889V24.2675H91.0841Z" fill="#004B8D"/>
<path d="M13.7883 19.7771V21.0658C13.7883 22.8378 12.3372 24.2877 10.5635 24.2877H5.40372C4.33548 24.2877 3.4688 23.4218 3.4688 22.3545V19.1528V16.5552L0.888916 17.8439V22.9989C0.888916 25.1334 2.62228 26.8651 4.75875 26.8651H10.5635C13.7682 26.8651 16.3682 24.2675 16.3682 21.0658V15.1255L13.7883 16.4344V19.7771Z" fill="#004B8D"/>
<path d="M65.4063 19.0119H65.7691C65.7893 19.0119 65.8296 19.0119 65.8296 19.032C65.8296 19.0522 65.8296 19.0522 65.7893 19.0924L64.3381 19.8174V21.3075L66.3939 20.2805C66.8777 20.0389 67.18 19.5556 67.18 19.032C67.18 18.2467 66.6358 17.703 65.8296 17.6627H65.4668C65.4466 17.6627 65.4063 17.6627 65.4063 17.6426C65.4063 17.6225 65.4063 17.6225 65.4466 17.5822L66.8978 16.8573V15.3672L64.842 16.3941C64.3582 16.6358 64.0559 17.119 64.0559 17.6426C64.0559 18.4279 64.6001 18.9716 65.4063 19.0119Z" fill="#004B8D"/>
<path d="M81.2282 20.3409C81.329 20.4416 81.5104 20.4416 81.6112 20.3409L83.2841 18.6897C83.3848 18.589 83.3848 18.4078 83.2841 18.3071L81.6112 16.6358C81.5104 16.5351 81.329 16.5351 81.2282 16.6358L79.5553 18.3071C79.4545 18.4078 79.4545 18.589 79.5553 18.6897L81.2282 20.3409Z" fill="#004B8D"/>
<path d="M76.27 22.3546V20.4214V13.3333L73.6901 14.6221V20.4214C73.6901 22.9989 72.2389 24.2877 70.4652 24.2877H57.5859V26.8652H70.4652C71.997 26.8652 73.4079 26.2611 74.4358 25.2945C75.1413 26.2409 76.27 26.8652 77.5599 26.8652H85.2794V24.2877H78.1847C77.1366 24.2675 76.27 23.4218 76.27 22.3546Z" fill="#004B8D"/>
<path d="M92.1928 32.5638C92.2936 32.6645 92.475 32.6645 92.5758 32.5638L94.2487 30.9126C94.3494 30.8119 94.3494 30.6307 94.2487 30.53L92.5758 28.8587C92.475 28.758 92.2936 28.758 92.1928 28.8587L90.5199 30.53C90.4191 30.6307 90.4191 30.8119 90.5199 30.9126L92.1928 32.5638Z" fill="#004B8D"/>
<path d="M8.44721 20.3409C8.54799 20.4416 8.72938 20.4416 8.83016 20.3409L10.5031 18.6897C10.6038 18.589 10.6038 18.4078 10.5031 18.3071L8.83016 16.6358C8.72938 16.5351 8.54799 16.5351 8.44721 16.6358L6.77431 18.3071C6.67354 18.4078 6.67354 18.589 6.77431 18.6897L8.44721 20.3409Z" fill="#004B8D"/>
<path d="M77.5396 36.6918H74.7179L73.307 38.1014H77.1768C77.7613 38.1014 78.2249 38.5645 78.2249 39.1485V39.4908H75.0605C73.6899 39.4908 72.6016 40.5983 72.6016 41.9475C72.6016 43.3168 73.7101 44.4042 75.0605 44.4042H78.2249H79.273H79.6156V38.786C79.6559 37.6383 78.7086 36.6918 77.5396 36.6918ZM75.0807 43.0349C74.4962 43.0349 74.0326 42.5717 74.0326 41.9878C74.0326 41.4038 74.4962 40.9407 75.0807 40.9407H78.2451V43.055H75.0807V43.0349Z" fill="#004B8D"/>
<path d="M85.9849 36.6918H82.4578L81.0469 38.1014V44.4243H82.4578V38.1014H85.6221C86.2067 38.1014 86.6702 38.5645 86.6702 39.1485V44.4243H88.0811V38.8062C88.1013 37.6383 87.154 36.6918 85.9849 36.6918Z" fill="#004B8D"/>
<path d="M59.2991 36.6918H55.772L54.3611 38.1014V44.4243H55.772V38.1014H58.9363C59.5209 38.1014 59.9844 38.5645 59.9844 39.1485V44.4243H61.3953V38.8062C61.4155 37.6383 60.4682 36.6918 59.2991 36.6918Z" fill="#004B8D"/>
<path d="M42.5903 36.6918H36.2615L34.8506 38.1014V44.4243H36.2615V38.1014H39.0832V44.4243H40.4941V38.1014H42.2476C42.8321 38.1014 43.2957 38.5645 43.2957 39.1485V44.4243H44.7066V38.8062C44.6864 37.6383 43.7593 36.6918 42.5903 36.6918Z" fill="#004B8D"/>
<path d="M90.9632 34.5976H89.512V44.4243H90.9632V40.4977V34.5976Z" fill="#004B8D"/>
<path d="M31.3236 36.6918H28.5018L27.0909 38.1014H30.9608C31.5453 38.1014 32.0088 38.5645 32.0088 39.1485V39.4908H28.8445C27.4739 39.4908 26.3855 40.5983 26.3855 41.9475C26.3855 43.3168 27.494 44.4042 28.8445 44.4042H32.0088H33.0569H33.3996V38.786C33.4399 37.6383 32.4926 36.6918 31.3236 36.6918ZM28.8646 43.0349C28.2801 43.0349 27.8165 42.5717 27.8165 41.9878C27.8165 41.4038 28.2801 40.9407 28.8646 40.9407H32.029V43.055H28.8646V43.0349Z" fill="#004B8D"/>
<path d="M50.8539 36.6918H47.9919L46.6415 38.1014H50.5113C51.0958 38.1014 51.5594 38.5645 51.5594 39.1485V39.4908H48.395C47.0244 39.4908 45.936 40.5983 45.936 41.9475C45.936 43.3168 47.0446 44.4042 48.395 44.4042H51.5594H52.6075H52.9501V38.786C52.9703 37.6383 52.023 36.6918 50.8539 36.6918ZM48.395 43.0349C47.8105 43.0349 47.3469 42.5717 47.3469 41.9878C47.3469 41.4038 47.8105 40.9407 48.395 40.9407H51.5594V43.055H48.395V43.0349Z" fill="#004B8D"/>
<path d="M22.5156 38.8062H21.1047C20.3187 38.8062 19.6938 38.1819 19.6938 37.3966C19.6938 36.6113 20.3187 35.987 21.1047 35.987H23.221L24.6319 34.5775H21.1047C19.5527 34.5775 18.283 35.8461 18.283 37.3966C18.283 38.9471 19.5527 40.2157 21.1047 40.2157H22.5156C23.3016 40.2157 23.9265 40.84 23.9265 41.6253C23.9265 42.4106 23.3016 43.0349 22.5156 43.0349H18.9884V44.4444H22.5156C24.0675 44.4444 25.3373 43.1758 25.3373 41.6253C25.3172 40.0748 24.0675 38.8062 22.5156 38.8062Z" fill="#004B8D"/>
<path d="M92.9384 40.4977L96.7477 36.6918H94.7523L90.9631 40.4977L94.8934 44.4243H96.8888L92.9384 40.4977Z" fill="#004B8D"/>
<path d="M70.2032 39.3096C70.6063 38.8263 70.8481 38.2021 70.8481 37.5376C70.8481 36.0072 69.6187 34.7788 68.0868 34.7788H66.0108H64.6201V44.4444H65.3054H65.9907H68.752C70.2838 44.4444 71.5133 43.2161 71.5133 41.6857C71.5536 40.6587 71.0094 39.7929 70.2032 39.3096ZM68.0868 36.1481C68.8527 36.1481 69.4776 36.7724 69.4776 37.5376C69.4776 38.3028 68.8527 38.927 68.0868 38.927H66.0108V36.1683H68.0868V36.1481ZM68.7923 43.055H66.031V40.2963H68.7923C69.5582 40.2963 70.183 40.9205 70.183 41.6857C70.1628 42.4308 69.538 43.055 68.7923 43.055Z" fill="#004B8D"/>
</svg>
